<svg version="1.1" viewBox="0 0 100 100" xmlns="http://www.w3.org/2000/svg">
	<rect width="100" height="100" rx="8" ry="8" fill="#26472a" fill-rule="evenodd"/>
	<path d="m-60.692-199.34c.238-.011.428-.031.542.23.074.169.05.786.05 1.003v2.032c0 .195.033.542-.135.675-.14.112-.992.176-1.22.207-1.085.15-1.886.252-2.962.536-2.69.71-4.67 2.102-7.112 2.835-.493.148-2.353.445-2.88.488h-.761c-.267.025-.397.079-.678.058l-1.27-.058-1.439-.146c-2.804-.344-4.572-1.596-7.112-2.544-.963-.36-2.794-.835-3.81-.936l-1.863-.107-1.354-.077-.847.077-1.863.107c-1.285.128-2.944.642-4.148 1.115l-3.726 1.68c-1.293.517-3.35.984-4.741 1-1.868.022-3.72-.12-5.503-.72l-2.117-.9-3.81-1.54-2.117-.48c-.244-.022-1.224-.123-1.376-.252-.157-.133-.145-.408-.148-.595v-2.37c0-.21-.031-.62.148-.774.162-.12.508-.039.699 0a8.923 8.923 0 012.032.503l4.318 1.895c1.088.422 3.693 1.08 4.826 1.085h.508l.847.081h.931l1.44-.081c1.343-.003 2.768-.315 4.063-.656 2.213-.585 4.343-2.09 6.774-2.738a10.83 10.83 0 012.455-.332l1.27-.084 2.117.084c.586.007.891.117 1.439.23 2.822.585 3.753 1.523 6.18 2.366l1.525.493.677.075 1.1.282 2.54.203 1.101.077 1.524-.085c.514-.006.712-.085 1.186-.146 1.959-.25 3.508-.614 5.334-1.402l3.979-1.763c1.422-.46 2-.445 3.387-.631zm.68 7.498v1.1l.082.932v1.44c-.001.227.046.59-.196.71l-2.09.257c-1.45.244-2.516.516-3.895 1.037-1.992.754-3.498 1.75-5.673 2.32l-.677.103c-.83.128-1.248.225-2.117.23l-.931.069-.593-.066h-.931c-3.187-.009-5.03-1.286-7.79-2.408-1.937-.789-3.59-1.176-5.672-1.329l-.847-.077c-2.452-.029-4.953.12-7.281.95l-3.302 1.436-.847.415c-1.263.52-2.204.782-3.556.948l-1.355.146c-1.906.022-3.659-.023-5.503-.594l-6.011-2.474-2.456-.549c-.227-.037-1.115-.11-1.243-.195-.234-.156-.195-.513-.196-.76v-2.201c0-.19-.024-.84.048-.977.094-.175.293-.14.46-.134.67.025.658.071 1.27.224 2.196.549 3.27 1.258 5.25 2.114 1.574.682 4.293 1.292 6.011 1.313 2.486.028 4.525.008 6.943-.715 1.286-.384 2.515-.981 3.725-1.553l1.693-.785c2.103-.755 3.98-.864 6.181-.842 1.341.013 3.312.416 4.572.891l4.233 1.857c2.271.824 4.87 1.174 7.282 1.147l.846-.077c2.414-.166 4.353-.567 6.604-1.486l3.133-1.447c1.596-.65 3.106-.97 4.83-.97z" fill="none" stroke="#000" stroke-width=".085"/>
	<g transform="matrix(.70078 0 0 .70078 14.563 14.234)" stroke-width="1.1573">
		<path d="m10.937 9.581h78.855v82.923h-78.855z" fill="#e7e8ea" fill-rule="evenodd"/>
		<path d="m89.792 9.581v82.918l-78.855.005c-.685-33.697.025-53.774 0-82.923 29.857.2424 49.17 0 78.855 0zm-78.855 0v37.964c.166.211 2.06.11485 2.389.18185l1.255.22c1.503.323 2.992.892 4.39 1.523 9.747 4.964 14.016 1.905 22.792-1.107 2.937-.975 5.819-1.13 8.886-1.095l1.673.18.836.059c1.23.16 3.55.79 4.705 1.251 8.917 4.237 14.31 3.911 22.477.208 1.476-.66735 3.0177-1.1785 4.6-1.525l3.032-.456c.282-.033 1.633.01 1.82-.135 0 0-.08-24.889 0-37.274zm0 60.385v22.538l78.855-.005-.147-21.387c0-.332.028-1.031-.268-1.25-.242-.175-.801-.037-1.091 0-1.027.11-2.037.27-3.032.552-2.003.568-3.845 1.637-5.75 2.45-1.406.6-3.508 1.192-5.018 1.43l-.941.075-1.673.179c-2.722.031-5.73.046-8.364-.733l-2.718-.907c-2.026-.844-3.94-1.909-6.063-2.52-1.563-.452-3.195-.508-4.81-.526h-2.509c-.6.008-1.19.134-1.777.25-3.38.674-4.8 1.945-7.736 3.027-1.746.644-4.745 1.406-6.587 1.409h-3.868c-2.269-.027-5.442-.926-7.527-1.815l-3.869-1.773c-1.776-.645-3.276-.753-5.107-.994z" fill="#26472a"/>
		<path d="m89.792 51.493v4.743c-1.44-.168-5.024.347-7 1.05-3.936 1.467-7.701 3.918-12.07 3.724-3.922.29-7.824-.811-11.285-2.623-4.142-1.965-8.826-2.263-13.327-1.858-5.461.308-9.792 4.423-15.272 4.656-3.4781.26686-6.9638-.4103-10.089-1.96-2.672-1.06-6.18-2.182-9.089-2.425v-6.1588c5.8223-.14681 8.0146 3.9353 15.682 5.5058 4.561.294 9.243-.499 13.27-2.736 3.737-2.053 8.16-2.26 12.295-1.695 3.97.634 7.282 3.337 11.279 3.829 1.964.435 4.02.506 6.03.536 4.175-.08 8.21-1.317 11.935-3.14 2.02-1.019 5.364-1.335 7.642-1.448zm0 8.892v4.984c-1.402.534-3.464.327-4.934.842-4.493.947-8.304 4.156-13.026 4.163-3.218.144-6.573.07-9.525-1.409-4.262-2.18-9.007-3.56-13.831-3.246-3.561-.044-6.94 1.095-10.104 2.613-4.476 2.363-9.9 2.786-14.74 1.361-2.697-1.017-5.294-2.35-8.059-3.155-1.293-.30332-2.5985-.55022-3.913-.74v-4.268c1.67-.166 4.674.655 6.526 1.201 5.854 3.04 13.002 3.361 19.215 1.27 3.34-1.318 6.49-3.418 10.22-3.44 3.935-.453 7.866.481 11.367 2.247 7.144 3.562 15.935 3.13 22.956-.525-.314-.398 8.678-1.898 7.848-1.898z" fill="#9dd5ec"/>
		<g fill="#26472a">
			<path d="m14.078 13.244c-.042.032.02.408.126.836.189.71.21 1.264.23 6.342.022 5.12.011 5.621-.167 6.186-.105.334-.168.679-.137.752.042.115.577.146 2.875.146 1.552 0 2.843-.031 2.874-.063.042-.03-.02-.386-.136-.783-.105-.397-.2-.961-.2-1.264 0-.544.011-.565 1.008-1.735.545-.648 1.049-1.15 1.101-1.118.116.073.567.773 1.532 2.351l.671 1.097-.031.732-.032.72.315.063c.504.105 6.347.115 6.347.021 0-.052-.23-.397-.525-.773-.482-.648-.891-1.254-2.308-3.48-.566-.898-2.077-3.29-2.38-3.792-.085-.136-.106-.293-.064-.376.157-.293 3.336-3.678 4.312-4.598.535-.511.934-.971.892-1.013-.095-.094-6.578-.146-6.725-.052-.052.031-.147.376-.22.773-.116.637-.2.804-.766 1.494-.346.428-.755.909-.913 1.087-.147.167-.514.595-.797.94-.776.92-1.228 1.41-1.332 1.41-.042 0-.084-.982-.084-2.173 0-1.63.042-2.309.157-2.695.304-1.014.346-.983-1.123-.983-.713 0-1.993-.03-2.864-.062-.86-.032-1.605-.032-1.636.01zm58.36.136c-1.385.021-1.815.052-1.773.157.41 1.097.42 1.201.42 6.969 0 4.942-.021 5.642-.179 5.997-.094.22-.167.512-.167.648v.25h2.916c1.605 0 2.948-.02 2.98-.052s-.053-.417-.19-.846c-.283-.867-.356-2.372-.125-2.507.063-.042.944-.094 1.961-.115 3.284-.063 3.599-.084 4.081-.335.609-.313 2.57-2.016 2.875-2.497.23-.366.241-.47.241-2.424 0-2.487 0-2.497-1.353-3.636-2.12-1.787-1.878-1.724-6.41-1.672-1.899.01-4.28.042-5.277.063zm6.525 3.48c1.091.187 1.48.71 1.406 1.88-.073 1.358-.598 1.693-2.665 1.745l-1.384.042-.063-.617c-.084-.742-.063-2.382.042-2.748.063-.25.115-.26 1.007-.324.514-.03.954-.062.975-.073s.336.032.682.094zm-21.495-3.355c-4.301.042-4.93.074-4.91.21.01.083.094.438.178.783.137.522.168 1.536.168 6.05 0 5.182-.01 5.454-.22 6.143-.115.408-.178.763-.147.794.042.042 2.864.063 6.274.042 4.91-.031 6.231-.063 6.315-.167.126-.167.944-3.49.87-3.563-.02-.031-.398.02-.828.105-1.133.208-6.861.334-7.081.146-.126-.105-.158-.314-.137-.92.01-.438.074-.856.126-.93.116-.146 4.406-.167 5.392-.03.43.062.556.04.609-.074.094-.24.063-3.343-.042-3.406-.042-.032-.41.01-.808.083-.493.105-1.416.147-2.927.136l-2.203-.02-.031-.93c-.021-.67.01-.962.105-1.014.262-.157 5.413-.105 6.305.063.461.083.86.135.912.104.042-.031.042-.23 0-.439-.042-.22-.189-.982-.314-1.703s-.305-1.358-.378-1.42c-.157-.126-.241-.126-7.228-.043zm-22.923.105c0 .052.095.439.2.857.199.72.199 1.086.168 6.248-.032 4.607-.063 5.569-.2 5.997-.325 1.003-.996.899 6.074.899 4.91 0 6.253-.032 6.284-.136.063-.178.819-3.344.84-3.469.01-.136-.168-.125-1.459.094-.818.146-1.573.178-3.462.157-1.321-.021-2.528-.052-2.685-.073-.283-.042-.294-.063-.325-.794-.021-.408-.01-.847.01-.983l.042-.25 2.79.041c1.532.021 2.865.063 2.949.084.136.042.157-.209.188-1.755.021-1.4 0-1.797-.105-1.797-.073 0-.346.052-.608.125-.283.063-1.374.104-2.728.094-1.238 0-2.318-.01-2.392-.01-.104 0-.125-.23-.104-.972l.031-.961 2.728-.032c2.245-.02 2.874 0 3.598.147.472.094.892.156.913.125.063-.063-.451-3.166-.588-3.51l-.094-.23h-6.032c-3.903 0-6.033.03-6.033.104zm45.604 16.362c-.032.031.042.324.168.648.21.554.23.773.22 3.072 0 1.368-.042 2.518-.084 2.56-.063.073-1.385-1.223-5.088-5.016l-1.196-1.222h-1.962c-1.08 0-1.982.031-2.014.062-.042.032.021.377.126.753.178.627.2 1.233.22 6.028.021 4.765.01 5.381-.147 5.83-.314.878-.524.816 2.655.795 1.563-.01 2.853-.053 2.884-.094.021-.032-.052-.366-.157-.721-.178-.575-.21-.972-.21-3.104 0-1.692.032-2.444.116-2.444.063 0 .713.606 1.437 1.347.734.742 2.13 2.153 3.105 3.135l1.773 1.787 1.794-.021 1.794-.032-.031-6.007c-.032-5.256-.021-6.07.125-6.53.305-.962.535-.889-2.643-.889-1.553 0-2.843.032-2.885.063zm-25.975.219-3.074.032.052.292c.032.157.105.47.158.7.063.23.136 2.706.167 5.59.053 4.942.042 5.214-.146 5.851-.116.376-.21.742-.21.805 0 .104.619.136 2.759.136 1.521 0 2.79-.032 2.822-.063s-.032-.376-.136-.773c-.158-.554-.2-.972-.179-1.85l.032-1.128 1.06-.031 1.07-.032.629 1.233c.398.794.65 1.432.703 1.787.125.898-.01.867 3.178.794 1.542-.042 2.822-.084 2.833-.094.02-.021-.22-.376-.535-.805-.315-.418-.944-1.483-1.395-2.371l-.83-1.6.42-.333c.798-.617 1.396-1.296 1.511-1.703.147-.523.147-2.895 0-3.428-.178-.626-1.815-2.152-2.927-2.727l-.577-.292-2.15-.01c-1.186-.011-3.536 0-5.235.02zm5.046 3.187c.22.063.545.282.713.47.273.303.315.44.315.962 0 .72-.158 1.076-.64 1.43-.336.252-.41.252-1.773.23l-1.416-.03-.032-1.505c-.02-1.139.01-1.526.105-1.599.21-.125 2.266-.104 2.728.042zm-44.922-3.103c0 .031.095.387.2.784.188.679.21 1.138.22 5.934.02 4.681 0 5.256-.168 5.851-.094.356-.157.68-.115.71.084.084 5.308.116 5.434.032.073-.042.052-.292-.053-.69a6.08 6.08 0 01-.188-1.201c-.021-.564-.011-.596.545-1.243.315-.366.703-.815.86-.983.168-.177.294-.344.294-.397 0-.041.084-.073.189-.073.189 0 .304.157 1.626 2.226.503.794.524.846.535 1.62l.01.804 3.127.01c1.71.01 3.136-.02 3.168-.062s-.22-.44-.556-.868a40.629 40.629 0 01-1.437-2.1 164.43 164.43 0 00-1.763-2.727 56.767 56.767 0 01-1.122-1.797c-.2-.376-.2-.376.01-.648.399-.512 2.875-3.176 3.871-4.179l.997-1.003-3.242-.031c-1.783-.01-3.262 0-3.283.02s-.116.356-.19.742c-.167.794-.157.774-2.255 3.25l-1.311 1.546-.073-.418c-.137-.763-.095-3.51.073-4.169.262-1.097.535-.992-2.623-.992-1.531 0-2.78.02-2.78.052zm19.649.135c-.031.074.021.377.105.68.147.46.168 1.348.19 5.872.02 4.67 0 5.402-.158 5.935-.095.334-.137.658-.105.71.094.157 11.76.104 11.886-.052.042-.063.168-.47.262-.899s.22-.95.273-1.15c.388-1.43.378-1.483-.136-1.357-.987.24-2.298.324-4.637.292l-2.518-.031-.032-.91c-.031-.793-.01-.919.158-1.002.283-.136 4.742-.084 5.098.062.168.074.346.105.399.063.115-.073.126-3.354.01-3.427-.052-.031-.346.01-.66.094-.703.188-4.763.22-4.868.042-.126-.199-.158-1.65-.042-1.724.063-.031 1.164-.094 2.444-.115 2.13-.052 2.738-.01 4.217.24l.326.063-.137-.773c-.346-1.933-.503-2.654-.608-2.717-.063-.041-2.654-.073-5.77-.062-4.574.02-5.655.052-5.697.167zm-17.865 47.029c-.2.114-.65.449-.997.752s-.713.627-.829.71c-.105.094-.283.366-.388.617-.178.407-.2.742-.2 3.26 0 3.29.032 3.427.955 4.179.315.25.682.575.83.71.136.136.46.366.723.523l.462.261 2.99-.02c3.451-.022 3.178.051 4.594-1.213.987-.877 1.196-1.201 1.196-1.86 0-.47-.01-.49-.283-.49-.157 0-.64-.074-1.08-.157-1.731-.324-2.56-.46-2.644-.408-.042.031-.084.199-.084.366 0 .543-.462.898-1.28.982-.996.104-1.532-.01-1.94-.418l-.347-.345v-4.096l.693-.752.986-.01c1.342-.01 1.7.188 1.836 1.013.073.387.083.397.409.335.178-.042.682-.115 1.112-.178.43-.052 1.185-.178 1.678-.282 1.007-.199 1.06-.261.84-1.087-.126-.45-.368-.731-1.532-1.755-.944-.846-.913-.836-4.322-.836-2.728.01-3.043.031-3.378.199zm12.808.449c.18.606.2 1.034.2 5.057 0 3.573-.031 4.493-.157 4.91-.084.283-.116.544-.074.586.053.052 2.036.073 4.427.062l4.333-.031.346-1.567c.19-.857.336-1.568.326-1.588-.021-.01-.315.041-.65.125-.42.104-1.26.146-2.53.157h-1.898l-.084-3.532c-.063-3.103-.052-3.594.095-4.022.293-.868.45-.805-2.183-.805h-2.35zm12.453-.596c-.02.032.032.303.126.606.158.46.2 1.18.252 4.911.063 3.897.053 4.44-.105 4.994-.094.345-.157.638-.136.659s2.308.062 5.088.104l5.035.073.284-1.233c.43-1.85.44-1.766-.19-1.724-.282.021-.692.073-.89.115-.284.063-4.827.042-4.9-.031-.063-.063-.095-1.421-.032-1.526.084-.135 3.997-.094 4.553.053l.305.083-.063-1.442c-.042-.794-.084-1.462-.105-1.473-.01-.02-.21.01-.44.063-.525.125-4.04.136-4.229.01-.094-.052-.125-.292-.104-.804l.031-.721 2.308.01c1.374 0 2.539.053 2.874.126.315.073.598.104.63.073.052-.052-.105-1.129-.325-2.257l-.116-.596-1.06-.052c-1.321-.083-8.707-.094-8.79-.02zm17.184.721c.063.617.032.815-.377 2.069-1.522 4.785-2.371 7.272-2.634 7.742-.167.303-.304.606-.304.669 0 .104.546.136 2.392.136 1.322 0 2.423-.021 2.455-.053s.01-.303-.042-.606c-.073-.386-.052-.658.042-.96l.136-.419 2.067-.031c2.455-.031 2.35-.094 2.318 1.306l-.02.867h2.507c1.385 0 2.518-.02 2.518-.052s-.158-.314-.357-.617c-.189-.303-.556-1.107-.797-1.797-.242-.679-.693-1.953-.997-2.81a249.21 249.21 0 00-.997-2.769c-.65-1.787-.713-2.09-.63-2.675.043-.282.064-.543.043-.585-.032-.042-1.7-.073-3.724-.083h-3.672zm4.385 3.95c.315.982.556 1.828.525 1.88-.031.042-.577.084-1.217.084h-1.164l.073-.397c.042-.303.724-2.612.955-3.24.115-.333.283 0 .828 1.673zm9.778-4.232c.042.167.115.408.178.554.053.146.137 2.215.179 4.702.073 3.876.062 4.513-.084 5.046-.084.324-.137.617-.105.648.02.031 1.122.084 2.423.125 2.654.073 2.507.115 2.235-.658-.158-.47-.326-4.41-.19-4.618.085-.125 1.144.898 4.375 4.231l1.029 1.077h3.126l-.063-3.48a675.92 675.92 0 00-.105-4.983c-.042-1.275-.021-1.62.147-2.163l.2-.638-.232-.052c-.409-.094-4.553-.083-4.605 0-.032.052.031.418.147.815.157.596.2 1.076.2 2.58 0 1.014-.043 1.871-.095 1.902-.074.053-1.207-1.076-4.91-4.92l-.43-.45h-3.483z" stroke-width="1.1573"/>
		</g>
	</g>
</svg>
