<?xml version="1.0" standalone="no"?>
<!DOCTYPE svg PUBLIC "-//W3C//DTD SVG 20010904//EN"
 "http://www.w3.org/TR/2001/REC-SVG-20010904/DTD/svg10.dtd">
<svg version="1.0" xmlns="http://www.w3.org/2000/svg"
 width="700.000000pt" height="700.000000pt" viewBox="0 0 700.000000 700.000000"
 preserveAspectRatio="xMidYMid meet">
<metadata>
Created by potrace 1.11, written by Peter Selinger 2001-2013
</metadata>
<g transform="translate(0.000000,700.000000) scale(0.100000,-0.100000)"
fill="#000000" stroke="none">
<path d="M534 6538 c3 -18 9 -44 12 -58 4 -14 8 -232 10 -485 3 -378 1 -470
-11 -515 -8 -30 -12 -57 -9 -60 3 -3 107 -6 230 -7 167 -1 226 1 230 10 2 7
-2 45 -10 86 -8 41 -13 83 -10 94 5 27 42 79 109 152 l55 60 20 -24 c11 -13
52 -76 92 -139 71 -115 72 -117 70 -179 l-2 -63 52 -1 c160 -4 449 -4 467 1
19 5 15 12 -42 92 -79 111 -357 552 -363 575 -5 20 52 86 271 311 77 79 141
148 143 153 4 11 -3 11 -293 14 -120 1 -227 0 -236 -2 -12 -3 -20 -19 -24 -46
-4 -23 -14 -55 -23 -72 -11 -23 -126 -170 -152 -195 -3 -3 -34 -38 -70 -79
l-65 -74 -6 34 c-10 64 -2 333 11 377 10 32 11 45 2 54 -8 8 -84 13 -238 16
l-226 3 6 -33z"/>
<path d="M5477 6563 c-1 -1 -75 -3 -165 -4 -89 -2 -167 -6 -172 -9 -7 -4 -6
-25 4 -61 21 -81 22 -920 1 -999 -8 -30 -15 -58 -15 -62 0 -5 108 -8 240 -8
139 0 240 4 240 9 0 5 -7 37 -16 71 -18 72 -23 175 -8 190 5 5 91 12 189 15
213 6 270 11 298 27 66 34 234 188 249 227 5 13 8 93 7 176 -1 197 -5 206
-135 314 -137 113 -144 114 -462 115 -140 1 -254 0 -255 -1z m396 -318 c32
-21 45 -63 40 -130 -8 -99 -51 -125 -214 -133 -63 -2 -109 0 -112 5 -6 9 -11
149 -8 223 2 55 11 62 92 67 41 3 75 6 77 8 7 6 100 -23 125 -40z"/>
<path d="M4548 6554 c-2 -1 -179 -4 -393 -5 -215 -2 -414 -5 -444 -7 l-53 -4
7 -42 c4 -22 9 -57 12 -76 8 -53 7 -828 0 -885 -4 -27 -11 -65 -16 -83 -8 -26
-7 -34 4 -38 20 -8 1002 0 1010 8 6 5 43 145 69 262 l7 29 -58 -7 c-116 -14
-202 -18 -391 -20 -154 -1 -194 2 -201 13 -10 15 -7 124 4 140 4 7 85 11 239
10 129 -1 238 1 243 4 10 6 9 264 0 274 -3 3 -26 1 -50 -5 -41 -8 -426 -18
-428 -10 -7 28 -7 137 1 148 8 13 44 15 237 13 125 0 254 -5 286 -11 47 -7 60
-6 64 4 6 16 -43 264 -54 275 -8 7 -90 19 -95 13z"/>
<path d="M2209 6542 c-15 -3 -15 -8 -2 -60 12 -45 15 -140 14 -461 -1 -421 -4
-522 -22 -567 -7 -19 -6 -31 1 -38 12 -12 993 -16 1005 -4 6 6 21 62 70 267 6
23 5 24 -52 17 -32 -4 -74 -10 -93 -13 -19 -4 -134 -6 -254 -6 -189 0 -221 3
-231 17 -9 12 -14 115 -6 146 0 3 40 5 89 4 48 -1 150 -3 228 -4 77 -2 145 0
151 3 6 4 11 64 12 142 l2 136 -78 -7 c-95 -9 -390 -10 -398 -2 -6 5 -8 54 -6
118 l1 36 253 -2 c138 0 263 -5 277 -11 42 -16 55 -11 54 22 -1 43 -33 220
-44 250 l-10 26 -472 -3 c-260 -1 -480 -4 -489 -6z"/>
<path d="M5923 5212 c-27 -4 -27 -5 -9 -66 15 -49 20 -413 7 -435 -6 -9 -477
450 -499 486 -5 7 -67 10 -167 9 l-160 -1 2 -30 c1 -16 5 -71 10 -122 14 -153
9 -842 -6 -886 -7 -21 -10 -41 -6 -45 9 -9 442 -8 451 1 4 4 1 33 -6 64 -13
59 -20 362 -10 418 5 29 12 24 260 -227 l255 -257 145 2 145 2 0 495 c1 382 4
504 14 533 10 29 10 42 2 50 -11 11 -366 18 -428 9z"/>
<path d="M3641 5192 l-103 -3 7 -32 c3 -18 8 -43 11 -57 2 -14 6 -214 9 -445
5 -364 3 -428 -10 -479 -9 -32 -13 -61 -10 -64 7 -7 388 -10 424 -4 24 5 25
15 6 92 -7 27 -7 198 -1 209 2 3 41 6 86 6 l81 0 33 -60 c38 -71 74 -159 80
-199 9 -50 6 -49 251 -46 83 2 167 3 188 3 20 0 37 5 37 9 0 5 -17 35 -39 66
-40 59 -171 297 -171 311 0 4 28 32 61 61 85 74 98 106 98 248 0 62 -5 127
-11 144 -19 54 -168 188 -253 227 -24 11 -99 15 -350 15 -176 1 -367 0 -424
-2z m574 -268 c74 -35 88 -146 26 -208 l-31 -31 -120 -1 -120 0 -1 50 c-3 198
-2 204 24 208 54 8 191 -3 222 -18z"/>
<path d="M556 5181 c-4 -5 -2 -20 3 -34 5 -13 12 -54 15 -90 7 -75 9 -809 2
-847 -2 -14 -7 -44 -11 -66 l-7 -41 222 -1 222 -1 -6 47 c-22 161 -26 146 75
264 70 81 69 82 165 -69 65 -101 69 -111 72 -175 l4 -68 249 0 c136 0 250 4
253 8 3 5 -15 37 -40 72 -41 55 -120 174 -259 390 -83 129 -95 150 -95 168 0
19 39 68 140 176 30 32 75 79 99 105 24 25 70 73 103 107 l59 61 -264 1 -265
2 -12 -52 c-7 -29 -20 -64 -29 -78 -27 -44 -252 -310 -262 -310 -5 0 -10 17
-10 38 -5 150 -2 264 8 316 9 43 9 63 2 73 -9 10 -59 13 -220 13 -115 0 -210
-4 -213 -9z"/>
<path d="M2161 5178 c-18 -6 -21 -13 -15 -30 16 -51 20 -159 21 -530 1 -245
-3 -415 -10 -450 -5 -32 -7 -61 -4 -64 12 -13 936 -7 955 5 11 7 74 259 68
270 -3 4 -40 2 -83 -5 -43 -6 -176 -12 -303 -12 l-226 0 -2 73 c-2 48 1 76 9
81 16 9 229 11 349 2 63 -4 97 -3 101 4 8 13 6 254 -2 263 -4 3 -28 1 -55 -5
-50 -12 -380 -17 -390 -7 -8 7 -14 108 -8 128 5 17 30 20 244 23 74 1 178 -3
230 -10 52 -7 95 -11 96 -10 3 4 -47 245 -55 263 l-10 22 -444 -1 c-245 -1
-454 -5 -466 -10z"/>
<path d="M334 3282 l-1 -248 131 -22 c211 -36 436 -106 711 -222 110 -46 288
-94 393 -107 84 -10 339 -10 411 0 154 21 310 78 727 263 57 25 211 73 286 88
135 28 425 39 613 23 258 -22 414 -65 665 -182 302 -140 504 -188 790 -187
324 2 384 18 885 235 151 65 243 96 345 116 144 28 227 37 314 37 l76 -1 0
194 0 194 -97 -7 c-54 -3 -109 -8 -123 -10 -14 -3 -59 -10 -100 -16 -88 -13
-212 -45 -255 -64 -329 -151 -479 -202 -730 -248 -96 -18 -157 -22 -310 -22
-214 -1 -268 3 -445 34 -121 20 -244 53 -312 83 -177 78 -354 153 -407 172
-93 33 -171 53 -231 60 -19 2 -57 7 -85 11 -128 18 -389 8 -545 -21 -96 -18
-220 -63 -355 -129 -211 -103 -369 -159 -540 -191 -108 -21 -177 -27 -341 -30
-187 -5 -192 -4 -303 26 -107 28 -209 63 -276 94 -61 28 -234 114 -375 187
-192 98 -324 138 -460 138 l-56 0 0 -248z"/>
<path d="M3367 2734 c-1 -1 -49 -5 -107 -8 -120 -7 -152 -12 -234 -32 -106
-27 -142 -42 -407 -162 -220 -100 -408 -155 -612 -179 -133 -16 -485 -8 -582
13 -11 2 -31 6 -45 8 -53 9 -158 36 -240 61 -88 28 -96 31 -221 89 -67 30
-299 95 -399 111 -73 11 -180 16 -181 8 -1 -4 -3 -83 -4 -175 l-2 -167 46 -7
c211 -29 370 -78 676 -207 189 -79 273 -111 323 -122 12 -3 32 -7 45 -10 114
-25 211 -35 347 -35 259 0 472 50 727 171 68 32 127 59 131 59 4 0 18 6 32 13
36 19 195 73 270 92 152 39 213 46 435 50 218 4 296 -2 480 -40 159 -33 363
-106 569 -204 212 -101 360 -133 624 -134 348 -1 429 17 788 173 238 104 312
132 442 164 92 23 124 29 252 41 30 3 79 10 108 16 l52 10 0 204 0 203 -32 -8
c-18 -5 -46 -11 -63 -13 -57 -9 -340 -68 -418 -88 -43 -11 -129 -44 -190 -73
-372 -179 -808 -247 -1217 -192 -177 24 -401 93 -580 178 -181 86 -329 138
-465 162 -16 3 -41 8 -55 11 -60 12 -284 27 -293 19z"/>
<path d="M713 1362 c-12 -4 -56 -34 -97 -67 -116 -90 -118 -98 -118 -363 0
-130 4 -234 11 -259 12 -45 81 -115 178 -180 l51 -35 239 5 c186 3 246 7 273
19 43 19 166 131 186 169 21 41 19 99 -3 100 -10 1 -27 3 -38 4 -21 3 -34 5
-172 31 -88 16 -103 14 -103 -15 0 -31 -39 -70 -76 -77 -91 -17 -142 -9 -186
29 l-28 24 0 171 0 170 34 29 c31 28 37 30 111 27 90 -3 124 -21 137 -72 5
-17 12 -33 16 -35 12 -8 294 42 309 54 17 15 17 53 -1 88 -24 45 -159 166
-200 178 -41 13 -485 16 -523 5z"/>
<path d="M1724 1353 c20 -62 25 -156 25 -453 0 -191 -5 -356 -11 -383 -5 -27
-7 -51 -4 -54 10 -10 697 -6 706 3 7 8 29 100 46 194 3 14 7 31 9 38 4 11 -7
12 -57 6 -35 -5 -128 -8 -208 -9 l-144 0 -3 65 c-10 238 -8 492 3 536 6 26 10
54 7 61 -4 10 -47 13 -190 13 -171 0 -184 -1 -179 -17z"/>
<path d="M2755 1328 c13 -79 14 -101 19 -433 4 -215 2 -347 -5 -378 -6 -27 -9
-51 -6 -54 10 -9 803 -20 812 -11 6 6 29 95 40 155 2 15 7 38 9 50 5 25 -12
35 -46 26 -29 -6 -426 -11 -451 -5 -15 4 -17 14 -15 66 l3 61 151 1 c84 1 172
-2 197 -6 l46 -7 -5 96 c-7 136 -9 143 -42 134 -29 -7 -339 -9 -346 -2 -6 6
-8 30 -7 80 l1 47 184 -3 c101 -2 207 -6 236 -10 l52 -7 -6 53 c-4 30 -12 82
-18 116 -10 58 -13 61 -42 66 -17 2 -197 5 -400 6 l-369 2 8 -43z"/>
<path d="M4139 1355 c0 -5 0 -35 1 -65 1 -43 -13 -100 -65 -260 -89 -273 -147
-442 -178 -515 -14 -33 -24 -61 -22 -63 3 -3 260 -5 350 -3 l40 1 0 74 c0 41
3 77 6 80 17 17 337 11 355 -7 3 -3 6 -40 5 -81 -1 -72 0 -76 22 -77 27 -1
298 -1 350 0 l38 1 -35 63 c-19 34 -87 208 -152 387 -108 298 -118 331 -118
397 l-1 73 -75 1 c-41 0 -175 1 -298 2 -142 1 -222 -2 -223 -8z m356 -366 c25
-77 45 -145 45 -150 0 -5 -43 -9 -96 -9 l-96 0 7 38 c11 65 76 262 85 262 5 0
30 -63 55 -141z"/>
<path d="M5294 1325 c4 -16 8 -41 11 -55 16 -85 21 -740 6 -788 -8 -28 -7 -34
7 -40 9 -3 96 -6 192 -7 l175 0 -1 25 c-1 14 -4 52 -8 85 -12 99 -14 305 -3
312 5 3 105 -92 222 -211 l213 -216 126 0 126 0 -7 338 c-9 430 -8 474 7 528
7 24 10 47 7 50 -7 7 -376 9 -383 2 -2 -3 2 -33 10 -68 16 -68 21 -346 7 -355
-5 -2 -104 93 -221 212 l-212 216 -140 1 -140 1 6 -30z"/>
</g>
</svg>
